<?xml version="1.0" standalone="no"?>
<!DOCTYPE svg PUBLIC "-//W3C//DTD SVG 20010904//EN"
 "http://www.w3.org/TR/2001/REC-SVG-20010904/DTD/svg10.dtd">
<svg version="1.0" xmlns="http://www.w3.org/2000/svg"
 width="300.000000pt" height="103.000000pt" viewBox="0 0 300.000000 103.000000"
 preserveAspectRatio="xMidYMid meet">
<metadata>
Created by potrace 1.10, written by Peter Selinger 2001-2011
</metadata>
<g transform="translate(0.000000,103.000000) scale(0.100000,-0.100000)"
fill="#3e4ec1" stroke="none">
<path d="M57 969 c35 -36 63 -69 63 -75 0 -6 -27 -37 -60 -68 -77 -73 -78 -85
-2 -16 92 85 92 84 41 137 -24 24 -57 54 -74 65 -17 12 -2 -8 32 -43z"/>
<path d="M2262 1013 c-10 -4 -12 -67 -11 -290 1 -241 3 -285 16 -290 8 -3 19
-1 26 6 8 8 7 11 -4 11 -14 0 -17 36 -23 272 -6 217 -4 273 6 280 7 5 46 7 86
6 39 -2 72 0 72 5 0 8 -147 8 -168 0z"/>
<path d="M270 985 c0 -20 5 -25 25 -25 23 0 24 -3 27 -72 3 -71 4 -73 30 -76
27 -3 27 -3 30 69 3 69 5 74 28 79 16 4 25 13 25 25 0 18 -8 20 -82 23 -83 3
-83 3 -83 -23z m154 0 c-4 -8 -17 -15 -30 -15 -23 0 -24 -3 -24 -76 0 -66 -2
-75 -17 -72 -15 3 -19 16 -21 76 -3 69 -4 72 -27 72 -16 0 -25 6 -25 15 0 12
15 15 75 15 62 0 73 -2 69 -15z"/>
<path d="M577 1003 c-7 -12 -57 -172 -57 -184 0 -5 13 -9 29 -9 20 0 30 6 34
20 3 13 14 20 31 20 15 0 30 -8 36 -20 6 -12 21 -20 36 -20 23 0 25 3 19 31
-4 17 -17 61 -29 98 -22 64 -24 66 -58 69 -20 2 -38 -1 -41 -5z m91 -78 c12
-38 25 -78 28 -87 4 -13 0 -18 -14 -18 -13 0 -22 9 -26 25 -5 20 -12 25 -40
25 -28 0 -35 -5 -40 -25 -4 -16 -13 -25 -26 -25 -11 0 -20 1 -20 3 0 3 45 137
55 165 3 8 16 12 32 10 25 -3 30 -11 51 -73z"/>
<path d="M603 935 c-11 -33 -10 -35 12 -35 22 0 23 3 15 31 -13 44 -15 44 -27
4z"/>
<path d="M827 1003 c-11 -10 -8 -152 3 -174 9 -16 22 -19 71 -19 57 0 60 1 57
23 -2 17 -11 23 -38 27 l-35 5 -3 73 c-3 68 -4 72 -26 72 -12 0 -26 -3 -29 -7z
m43 -78 l0 -75 40 0 c29 0 40 -4 40 -15 0 -11 -12 -15 -50 -15 -61 0 -70 13
-70 103 0 66 4 77 27 77 10 0 13 -19 13 -75z"/>
<path d="M1084 985 c-13 -20 -15 -40 -11 -87 7 -83 19 -92 110 -89 30 1 37 5
37 21 0 14 -6 20 -22 19 -17 -1 -19 -2 -5 -6 39 -10 14 -24 -40 -21 l-58 3 0
85 0 85 58 3 c45 2 57 0 57 -12 0 -10 -13 -16 -42 -18 -31 -2 -44 -8 -46 -20
-3 -15 3 -18 35 -17 30 2 32 3 11 6 -40 6 -34 21 10 25 30 2 38 7 40 26 3 21
0 22 -57 22 -54 0 -62 -3 -77 -25z"/>
<path d="M1345 997 c-3 -7 -5 -52 -3 -98 3 -83 3 -84 31 -87 26 -3 27 -1 27
40 l1 43 17 -24 c43 -59 61 -72 82 -61 19 10 20 19 18 103 -3 91 -3 92 -28 92
-22 0 -26 -5 -30 -39 l-5 -39 -25 39 c-27 41 -75 59 -85 31z m89 -64 c17 -34
33 -63 36 -63 3 0 3 29 2 65 -3 60 -2 65 17 65 20 0 21 -5 21 -91 l0 -90 -27
3 c-21 2 -33 15 -60 68 l-33 65 0 -67 c0 -61 -2 -68 -20 -68 -18 0 -20 7 -20
83 0 46 3 87 7 91 20 20 48 -2 77 -61z"/>
<path d="M1633 994 c-7 -18 4 -31 32 -36 17 -3 20 -12 23 -76 l3 -72 29 0 29
0 3 73 c3 66 5 72 26 75 16 3 22 10 22 28 0 23 -2 24 -80 24 -64 0 -82 -3 -87
-16z m157 -9 c0 -9 -9 -15 -25 -15 -24 0 -25 -2 -25 -75 0 -68 -2 -75 -20 -75
-18 0 -20 7 -20 75 0 73 -1 75 -25 75 -16 0 -25 6 -25 15 0 12 14 15 70 15 56
0 70 -3 70 -15z"/>
<path d="M1931 984 c-24 -30 -28 -97 -10 -138 15 -32 59 -50 104 -42 47 9 65
38 65 108 0 76 -20 98 -89 98 -42 0 -53 -4 -70 -26z m133 -6 c22 -31 21 -110
-2 -138 -14 -17 -29 -23 -61 -23 -60 0 -76 19 -76 94 0 72 16 89 81 89 33 0
46 -5 58 -22z"/>
<path d="M1964 935 c-9 -48 2 -82 28 -91 27 -8 48 18 48 62 0 50 -9 64 -41 64
-24 0 -29 -5 -35 -35z m62 1 c10 -41 1 -71 -23 -74 -26 -4 -38 25 -28 68 8 38
42 41 51 6z"/>
<path d="M2440 795 c0 -130 3 -215 9 -215 6 0 10 86 11 215 0 132 -3 215 -9
215 -6 0 -10 -84 -11 -215z"/>
<path d="M1200 917 c0 -13 -9 -17 -40 -17 -32 0 -40 -4 -40 -19 0 -10 7 -24
16 -32 13 -11 14 -9 9 14 -7 25 -5 27 24 27 30 0 52 22 37 37 -3 4 -6 -1 -6
-10z"/>
<path d="M2757 814 c-4 -4 -7 -65 -7 -135 l0 -128 -132 -4 -133 -3 140 1 140
0 3 133 3 132 85 0 85 0 -3 -185 c-2 -102 0 -185 4 -185 13 0 19 86 16 230
l-3 145 -95 3 c-53 1 -99 0 -103 -4z"/>
<path d="M1704 725 c-143 -31 -205 -94 -220 -223 -6 -54 -4 -62 10 -62 11 0
14 5 10 12 -13 21 -4 101 17 142 25 51 78 89 150 110 60 18 212 26 291 16 26
-4 48 -3 48 0 0 22 -213 25 -306 5z"/>
<path d="M15 720 c-12 -5 140 -9 392 -9 l411 -1 7 -41 c4 -25 3 -45 -4 -52 -6
-6 -52 -13 -103 -15 -53 -3 -96 -9 -100 -16 -4 -6 -8 -39 -8 -74 l0 -63 -77 3
-78 3 -5 65 -6 65 -5 -70 c-3 -38 -2 -72 1 -75 3 -3 47 -4 98 -2 l92 3 0 75 0
74 108 0 107 0 -1 66 -2 67 -403 3 c-225 2 -413 -1 -424 -6z"/>
<path d="M890 708 c1 -21 2 -21 11 -5 9 15 32 17 262 17 139 0 258 -4 265 -8
8 -6 10 -22 6 -55 l-7 -46 -151 -4 -151 -3 163 -2 162 -2 0 65 0 65 -280 0
-280 0 0 -22z"/>
<path d="M2090 682 c62 -30 78 -44 93 -76 10 -21 20 -36 23 -33 8 8 -21 59
-48 84 -25 24 -104 62 -128 63 -8 0 19 -17 60 -38z"/>
<path d="M890 552 c0 -125 4 -136 40 -112 13 8 13 10 -1 10 -23 0 -26 12 -28
120 -3 138 -11 124 -11 -18z"/>
<path d="M1080 589 c0 -18 2 -19 15 -5 8 8 15 17 15 20 0 3 -7 6 -15 6 -9 0
-15 -9 -15 -21z"/>
<path d="M1778 603 c-16 -2 -44 -19 -63 -37 -27 -26 -35 -41 -35 -68 0 -19 -5
-39 -12 -46 -9 -9 -8 -12 5 -12 13 0 17 9 17 40 0 82 43 110 169 110 79 0 134
-21 147 -55 5 -12 27 -15 110 -15 103 0 112 3 95 28 -7 11 -9 11 -13 0 -4 -10
-29 -14 -87 -16 -79 -2 -83 -1 -111 26 -43 43 -125 60 -222 45z"/>
<path d="M108 593 c61 -2 163 -2 225 0 61 1 11 3 -113 3 -124 0 -174 -2 -112
-3z"/>
<path d="M2446 556 c3 -9 11 -16 16 -16 13 0 5 23 -10 28 -7 2 -10 -2 -6 -12z"/>
<path d="M1245 540 l-90 -5 135 -5 135 -5 0 -35 0 -35 -150 -5 c-184 -6 -166
-20 26 -20 l140 0 -3 57 -3 56 -50 1 c-27 1 -90 -1 -140 -4z"/>
<path d="M2510 440 c20 -13 277 -13 285 0 4 7 -47 10 -147 10 -102 0 -148 -4
-138 -10z"/>
<path d="M486 402 c-9 -16 14 -81 41 -112 30 -36 65 -56 116 -65 l37 -7 0 96
0 96 -42 -1 c-39 -1 -40 -2 -13 -8 29 -6 30 -7 33 -75 2 -38 -1 -73 -7 -79
-14 -14 -96 29 -120 62 -31 43 -36 77 -14 90 17 10 16 10 -4 11 -12 0 -24 -4
-27 -8z"/>
<path d="M940 314 l0 -94 280 0 280 1 0 64 0 65 -185 0 -185 0 0 29 0 29 -95
0 -95 0 0 -94z m170 56 c0 -34 32 -40 205 -40 l166 0 -3 -42 -3 -43 -257 -3
-258 -2 0 75 0 75 75 0 c68 0 75 -2 75 -20z"/>
<path d="M1490 403 c0 -5 5 -15 10 -23 8 -13 10 -13 10 2 0 9 8 19 18 21 10 3
6 5 -10 6 -16 0 -28 -2 -28 -6z"/>
<path d="M1705 385 c52 -32 65 -32 27 0 -17 14 -38 25 -48 25 -13 0 -6 -8 21
-25z"/>
<path d="M1982 390 c-30 -25 -122 -43 -175 -35 -33 6 -39 4 -30 -5 7 -8 36
-11 87 -8 59 3 81 8 107 27 27 20 44 24 123 25 81 1 91 -1 94 -18 4 -20 -63
-96 -85 -96 -7 0 -13 -4 -13 -8 0 -15 -147 -42 -231 -42 -144 0 -243 27 -309
84 -22 19 -23 19 -10 1 29 -38 56 -55 125 -77 97 -32 278 -32 380 0 70 21 126
64 154 119 25 49 19 53 -91 53 -86 -1 -107 -4 -126 -20z"/>
<path d="M2300 315 l0 -95 100 0 100 0 0 95 c0 78 -3 95 -15 95 -17 0 -20 -11
-5 -26 6 -6 7 -37 3 -77 l-6 -68 -76 3 -76 3 0 83 c0 59 -4 82 -12 82 -10 0
-13 -26 -13 -95z"/>
<path d="M2810 205 c0 -130 4 -205 10 -205 6 0 10 72 10 196 l0 195 82 -2 c55
-1 83 2 86 9 3 9 -24 12 -92 12 l-96 0 0 -205z"/>
</g>
</svg>
